<svg width="129" height="21" viewBox="0 0 129 21" fill="none" xmlns="http://www.w3.org/2000/svg">
<path d="M0.93679 20V0.363636H8.45384C9.87287 0.363636 11.0522 0.587357 11.9918 1.0348C12.9379 1.47585 13.6442 2.0799 14.1108 2.84695C14.5838 3.61399 14.8203 4.48331 14.8203 5.4549C14.8203 6.25391 14.6669 6.93785 14.3601 7.50675C14.0533 8.06925 13.641 8.52628 13.1232 8.87784C12.6055 9.2294 12.027 9.48189 11.3878 9.6353V9.82706C12.0845 9.86541 12.7525 10.0795 13.3917 10.4695C14.0373 10.853 14.5646 11.3963 14.9737 12.0994C15.3828 12.8026 15.5874 13.6527 15.5874 14.6499C15.5874 15.6662 15.3413 16.5803 14.8491 17.392C14.3569 18.1974 13.6154 18.8335 12.6246 19.3001C11.6339 19.7667 10.3874 20 8.8853 20H0.93679ZM4.49396 17.0277H8.3196C9.6108 17.0277 10.5408 16.7816 11.1097 16.2894C11.685 15.7908 11.9727 15.1516 11.9727 14.3718C11.9727 13.7901 11.8288 13.266 11.5412 12.7994C11.2536 12.3263 10.8445 11.9556 10.3139 11.6871C9.78338 11.4123 9.15057 11.2749 8.41548 11.2749H4.49396V17.0277ZM4.49396 8.71484H8.01278C8.62642 8.71484 9.17933 8.60298 9.67152 8.37926C10.1637 8.14915 10.5504 7.82635 10.8317 7.41087C11.1193 6.98899 11.2631 6.49041 11.2631 5.91513C11.2631 5.15447 10.9947 4.52805 10.4577 4.03587C9.9272 3.54368 9.13778 3.29758 8.08949 3.29758H4.49396V8.71484ZM25.0484 20.2876C23.5718 20.2876 22.2966 19.9808 21.2227 19.3672C20.1553 18.7472 19.3339 17.8714 18.7586 16.7401C18.1833 15.6023 17.8957 14.2631 17.8957 12.7227C17.8957 11.2077 18.1833 9.8782 18.7586 8.73402C19.3403 7.58345 20.1521 6.68856 21.194 6.04936C22.2359 5.40376 23.46 5.08097 24.8662 5.08097C25.7739 5.08097 26.6304 5.22798 27.4358 5.52202C28.2476 5.80966 28.9635 6.2571 29.5835 6.86435C30.21 7.47159 30.7021 8.24503 31.0601 9.18466C31.4181 10.1179 31.597 11.2301 31.597 12.5213V13.5856H19.5257V11.2461H28.27C28.2636 10.5813 28.1198 9.99006 27.8385 9.4723C27.5573 8.94815 27.1642 8.53587 26.6592 8.23544C26.1606 7.93501 25.5789 7.7848 24.9142 7.7848C24.2046 7.7848 23.5814 7.95739 23.0445 8.30256C22.5075 8.64133 22.0889 9.08878 21.7884 9.64489C21.4944 10.1946 21.3442 10.7987 21.3378 11.457V13.4993C21.3378 14.3558 21.4944 15.0909 21.8076 15.7045C22.1208 16.3118 22.5587 16.7784 23.1212 17.1044C23.6837 17.424 24.3421 17.5838 25.0963 17.5838C25.6013 17.5838 26.0583 17.5135 26.4674 17.3729C26.8765 17.2259 27.2313 17.0117 27.5317 16.7305C27.8321 16.4492 28.059 16.1009 28.2124 15.6854L31.4532 16.0497C31.2487 16.9062 30.8588 17.6541 30.2835 18.2933C29.7146 18.9261 28.9859 19.4183 28.0974 19.7699C27.2089 20.1151 26.1926 20.2876 25.0484 20.2876ZM38.7713 20.2972C37.8381 20.2972 36.9975 20.131 36.2496 19.7987C35.5082 19.4599 34.9201 18.9613 34.4854 18.3029C34.0572 17.6445 33.843 16.8327 33.843 15.8675C33.843 15.0366 33.9964 14.3494 34.3033 13.8061C34.6101 13.2628 35.0288 12.8281 35.5593 12.5021C36.0898 12.1761 36.6875 11.93 37.3523 11.7638C38.0234 11.5913 38.717 11.4666 39.4329 11.3899C40.2958 11.3004 40.9957 11.2205 41.5327 11.1502C42.0696 11.0735 42.4595 10.9585 42.7024 10.805C42.9517 10.6452 43.0763 10.3991 43.0763 10.0668V10.0092C43.0763 9.28693 42.8622 8.72763 42.4339 8.33132C42.0057 7.93501 41.3888 7.73686 40.5835 7.73686C39.7333 7.73686 39.0589 7.92223 38.5604 8.29297C38.0682 8.66371 37.7358 9.10156 37.5632 9.60653L34.3224 9.14631C34.5781 8.25142 35 7.50355 35.5881 6.9027C36.1761 6.29545 36.8952 5.84162 37.7454 5.54119C38.5955 5.23438 39.5352 5.08097 40.5643 5.08097C41.2738 5.08097 41.9801 5.16406 42.6832 5.33026C43.3864 5.49645 44.0288 5.77131 44.6104 6.15483C45.1921 6.53196 45.6587 7.04652 46.0103 7.69851C46.3683 8.3505 46.5472 9.16548 46.5472 10.1435V20H43.2106V17.9769H43.0955C42.8846 18.386 42.5874 18.7695 42.2038 19.1275C41.8267 19.479 41.3505 19.7635 40.7752 19.9808C40.2063 20.1918 39.5384 20.2972 38.7713 20.2972ZM39.6726 17.7468C40.3693 17.7468 40.9734 17.6094 41.4847 17.3345C41.9961 17.0533 42.3892 16.6825 42.6641 16.2223C42.9453 15.7621 43.0859 15.2603 43.0859 14.717V12.9815C42.9773 13.071 42.7919 13.1541 42.5298 13.2308C42.2741 13.3075 41.9865 13.3746 41.6669 13.4322C41.3473 13.4897 41.0309 13.5408 40.7177 13.5856C40.4045 13.6303 40.1328 13.6687 39.9027 13.7006C39.3849 13.771 38.9215 13.886 38.5124 14.0458C38.1033 14.2056 37.7805 14.4293 37.544 14.717C37.3075 14.9982 37.1893 15.3626 37.1893 15.81C37.1893 16.4492 37.4226 16.9318 37.8892 17.2578C38.3558 17.5838 38.9503 17.7468 39.6726 17.7468ZM57.3913 5.27273V7.95739H48.9251V5.27273H57.3913ZM51.0153 1.74432H54.4862V15.5703C54.4862 16.0369 54.5565 16.3949 54.6971 16.6442C54.8441 16.8871 55.0359 17.0533 55.2724 17.1428C55.5089 17.2322 55.771 17.277 56.0586 17.277C56.2759 17.277 56.4741 17.261 56.6531 17.229C56.8384 17.1971 56.979 17.1683 57.0749 17.1428L57.6598 19.8562C57.4744 19.9201 57.2092 19.9904 56.864 20.0671C56.5252 20.1438 56.1097 20.1886 55.6175 20.2013C54.7482 20.2269 53.9652 20.0959 53.2685 19.8082C52.5717 19.5142 52.0188 19.0604 51.6097 18.4467C51.207 17.8331 51.0089 17.0661 51.0153 16.1456V1.74432ZM64.4218 20L58.8799 0.363636H62.7055L66.2435 14.7937H66.4257L70.2034 0.363636H73.6839L77.4711 14.8033H77.6437L81.1817 0.363636H85.0074L79.4655 20H75.9562L72.0251 6.22195H71.8717L67.931 20H64.4218ZM90.0555 20.2972C89.1222 20.2972 88.2817 20.131 87.5338 19.7987C86.7923 19.4599 86.2043 18.9613 85.7696 18.3029C85.3414 17.6445 85.1272 16.8327 85.1272 15.8675C85.1272 15.0366 85.2806 14.3494 85.5874 13.8061C85.8943 13.2628 86.3129 12.8281 86.8435 12.5021C87.374 12.1761 87.9717 11.93 88.6365 11.7638C89.3076 11.5913 90.0012 11.4666 90.7171 11.3899C91.58 11.3004 92.2799 11.2205 92.8169 11.1502C93.3538 11.0735 93.7437 10.9585 93.9866 10.805C94.2359 10.6452 94.3605 10.3991 94.3605 10.0668V10.0092C94.3605 9.28693 94.1464 8.72763 93.7181 8.33132C93.2899 7.93501 92.673 7.73686 91.8676 7.73686C91.0175 7.73686 90.3431 7.92223 89.8445 8.29297C89.3524 8.66371 89.02 9.10156 88.8474 9.60653L85.6066 9.14631C85.8623 8.25142 86.2842 7.50355 86.8722 6.9027C87.4603 6.29545 88.1794 5.84162 89.0296 5.54119C89.8797 5.23438 90.8193 5.08097 91.8485 5.08097C92.558 5.08097 93.2643 5.16406 93.9674 5.33026C94.6705 5.49645 95.3129 5.77131 95.8946 6.15483C96.4763 6.53196 96.9429 7.04652 97.2945 7.69851C97.6524 8.3505 97.8314 9.16548 97.8314 10.1435V20H94.4948V17.9769H94.3797C94.1688 18.386 93.8715 18.7695 93.488 19.1275C93.1109 19.479 92.6347 19.7635 92.0594 19.9808C91.4905 20.1918 90.8225 20.2972 90.0555 20.2972ZM90.9568 17.7468C91.6535 17.7468 92.2575 17.6094 92.7689 17.3345C93.2803 17.0533 93.6734 16.6825 93.9482 16.2223C94.2295 15.7621 94.3701 15.2603 94.3701 14.717V12.9815C94.2615 13.071 94.0761 13.1541 93.814 13.2308C93.5583 13.3075 93.2707 13.3746 92.9511 13.4322C92.6315 13.4897 92.3151 13.5408 92.0019 13.5856C91.6887 13.6303 91.417 13.6687 91.1869 13.7006C90.6691 13.771 90.2057 13.886 89.7966 14.0458C89.3875 14.2056 89.0647 14.4293 88.8282 14.717C88.5917 14.9982 88.4735 15.3626 88.4735 15.81C88.4735 16.4492 88.7068 16.9318 89.1734 17.2578C89.64 17.5838 90.2345 17.7468 90.9568 17.7468ZM113.949 5.27273L108.704 20H104.869L99.6244 5.27273H103.325L106.71 16.2127H106.863L110.258 5.27273H113.949ZM122.37 20.2876C120.893 20.2876 119.618 19.9808 118.544 19.3672C117.477 18.7472 116.655 17.8714 116.08 16.7401C115.505 15.6023 115.217 14.2631 115.217 12.7227C115.217 11.2077 115.505 9.8782 116.08 8.73402C116.662 7.58345 117.473 6.68856 118.515 6.04936C119.557 5.40376 120.781 5.08097 122.188 5.08097C123.095 5.08097 123.952 5.22798 124.757 5.52202C125.569 5.80966 126.285 6.2571 126.905 6.86435C127.531 7.47159 128.023 8.24503 128.381 9.18466C128.739 10.1179 128.918 11.2301 128.918 12.5213V13.5856H116.847V11.2461H125.591C125.585 10.5813 125.441 9.99006 125.16 9.4723C124.879 8.94815 124.485 8.53587 123.98 8.23544C123.482 7.93501 122.9 7.7848 122.235 7.7848C121.526 7.7848 120.903 7.95739 120.366 8.30256C119.829 8.64133 119.41 9.08878 119.11 9.64489C118.816 10.1946 118.665 10.7987 118.659 11.457V13.4993C118.659 14.3558 118.816 15.0909 119.129 15.7045C119.442 16.3118 119.88 16.7784 120.442 17.1044C121.005 17.424 121.663 17.5838 122.418 17.5838C122.923 17.5838 123.38 17.5135 123.789 17.3729C124.198 17.2259 124.553 17.0117 124.853 16.7305C125.153 16.4492 125.38 16.1009 125.534 15.6854L128.775 16.0497C128.57 16.9062 128.18 17.6541 127.605 18.2933C127.036 18.9261 126.307 19.4183 125.419 19.7699C124.53 20.1151 123.514 20.2876 122.37 20.2876Z" fill="black"/>
</svg>
