<svg width="37" height="37" viewBox="0 0 37 37" fill="none" xmlns="http://www.w3.org/2000/svg">
<path d="M28.8755 8.34052L26.9021 9.88219L18.5 16.1259L10.098 9.82052L8.12463 8.27886C7.65975 7.89428 7.09225 7.65454 6.49245 7.58935C5.89265 7.52415 5.2869 7.63636 4.75024 7.91207C4.21359 8.18778 3.76962 8.61488 3.47333 9.14045C3.17704 9.66603 3.04146 10.267 3.08338 10.8689V28.7368C3.08338 29.2928 3.30428 29.8261 3.69748 30.2193C4.09068 30.6125 4.62398 30.8334 5.18005 30.8334H10.098V18.9318L18.5 25.2372L26.9021 18.9318V30.8334H31.82C32.3761 30.8334 32.9094 30.6125 33.3026 30.2193C33.6958 29.8261 33.9167 29.2928 33.9167 28.7368V10.8689C33.9457 10.2722 33.8006 9.67993 33.4993 9.16412C33.198 8.6483 32.7533 8.23114 32.2193 7.96332C31.6853 7.69551 31.085 7.58859 30.4914 7.65555C29.8978 7.72252 29.3364 7.96048 28.8755 8.34052Z" fill="#737373"/>
</svg>
