<svg width="40" height="32" viewBox="0 0 40 32" fill="none" xmlns="http://www.w3.org/2000/svg">
<path d="M38.3333 27.6667C38.3333 28.5507 37.9821 29.3986 37.357 30.0237C36.7319 30.6488 35.884 31 35 31H4.99999C4.11593 31 3.26809 30.6488 2.64297 30.0237C2.01785 29.3986 1.66666 28.5507 1.66666 27.6667V9.33333C1.66666 8.44928 2.01785 7.60143 2.64297 6.97631C3.26809 6.35119 4.11593 6 4.99999 6H11.6667L15 1H25L28.3333 6H35C35.884 6 36.7319 6.35119 37.357 6.97631C37.9821 7.60143 38.3333 8.44928 38.3333 9.33333V27.6667Z" stroke="black" stroke-width="2" stroke-linecap="round" stroke-linejoin="round"/>
<path d="M20 24.3333C23.6819 24.3333 26.6667 21.3486 26.6667 17.6667C26.6667 13.9848 23.6819 11 20 11C16.3181 11 13.3333 13.9848 13.3333 17.6667C13.3333 21.3486 16.3181 24.3333 20 24.3333Z" stroke="black" stroke-width="2" stroke-linecap="round" stroke-linejoin="round"/>
</svg>
