<svg width="89" height="79" viewBox="0 0 89 79" fill="none" xmlns="http://www.w3.org/2000/svg">
<g filter="url(#filter0_d_414_505)">
<path d="M4 46.5425C4.10188 41.3511 4.95159 36.7639 6.4711 32.3158C8.59537 26.1053 11.927 20.6586 16.065 15.7317C21.0419 9.80622 26.8923 4.97737 33.1719 0.688854C33.4429 0.504182 33.7312 0.340028 34.0282 0.212353C34.9147 -0.170673 35.6625 -0.0384376 36.2738 0.729893C37.1755 1.86073 38.0513 3.0212 38.8555 4.22956C39.5578 5.28516 39.3475 6.21308 38.3179 6.95861C31.6308 11.8034 26.0383 17.8201 21.2413 24.6735C20.242 26.1008 19.4032 27.6579 18.5513 29.19C18.0419 30.1043 17.7363 31.1143 17.5759 32.179C17.3114 33.9163 18.1113 34.9719 19.1452 35.4552C19.9949 35.8542 20.8793 36.1894 21.7724 36.4675C24.0506 37.172 26.3374 37.8514 28.492 38.9184C33.4776 41.3876 36.432 45.5872 37.5397 51.1707C38.7037 57.0483 36.8742 62.055 33.0527 66.3503C31.1084 68.5345 28.789 70.0461 25.9754 70.6662C23.2615 71.2635 20.6127 71.0014 18.018 70.0301C13.7825 68.4479 10.5657 65.5136 8.125 61.6081C5.82514 57.9306 4.56358 53.8633 4.21026 49.4835C4.11922 48.3527 4.04769 47.2219 4 46.5425Z" fill="#C0A677"/>
</g>
<g filter="url(#filter1_d_414_505)">
<path d="M49.7976 48.1152C49.8453 39.0525 51.7008 32.2789 54.9631 25.9088C57.69 20.5875 61.2926 15.9775 65.4111 11.7916C69.5209 7.61254 74.0621 4.01712 78.8417 0.743167C79.1126 0.558494 79.3966 0.389781 79.6914 0.252986C80.6321 -0.184757 81.3626 -0.0753215 82.0259 0.745447C82.9363 1.86944 83.8077 3.0322 84.6206 4.23599C85.2752 5.20724 85.0628 6.19216 84.1372 6.91261C83.2983 7.56694 82.4248 8.1734 81.5902 8.8323C78.0332 11.6457 74.8663 14.906 71.8663 18.3464C69.6466 20.8908 67.583 23.5696 65.8034 26.4788C64.828 28.0702 63.8786 29.6798 63.4364 31.5516C62.9465 33.6218 63.5317 34.9259 65.4154 35.7216C66.3475 36.116 67.3316 36.3668 68.2853 36.7088C70.1213 37.3654 71.979 37.9741 73.7803 38.7242C77.5433 40.2928 80.1704 43.1609 81.9392 46.9342C83.6408 50.5661 84.1047 54.3667 83.1639 58.311C82.5223 61.0013 81.2608 63.3678 79.5418 65.4653C78.1415 67.173 76.5765 68.68 74.6105 69.6376C71.0252 71.3817 67.3619 71.3954 63.6943 69.9978C58.8648 68.1556 55.3749 64.6605 52.9385 59.9798C50.7297 55.7392 49.7586 51.1589 49.7976 48.1152Z" fill="#C0A677"/>
</g>
<defs>
<filter id="filter0_d_414_505" x="0" y="0.00463867" width="43.2664" height="78.9795" filterUnits="userSpaceOnUse" color-interpolation-filters="sRGB">
<feFlood flood-opacity="0" result="BackgroundImageFix"/>
<feColorMatrix in="SourceAlpha" type="matrix" values="0 0 0 0 0 0 0 0 0 0 0 0 0 0 0 0 0 0 127 0" result="hardAlpha"/>
<feOffset dy="4"/>
<feGaussianBlur stdDeviation="2"/>
<feComposite in2="hardAlpha" operator="out"/>
<feColorMatrix type="matrix" values="0 0 0 0 0 0 0 0 0 0 0 0 0 0 0 0 0 0 0.25 0"/>
<feBlend mode="normal" in2="BackgroundImageFix" result="effect1_dropShadow_414_505"/>
<feBlend mode="normal" in="SourceGraphic" in2="effect1_dropShadow_414_505" result="shape"/>
</filter>
<filter id="filter1_d_414_505" x="45.7965" y="0" width="43.2035" height="79" filterUnits="userSpaceOnUse" color-interpolation-filters="sRGB">
<feFlood flood-opacity="0" result="BackgroundImageFix"/>
<feColorMatrix in="SourceAlpha" type="matrix" values="0 0 0 0 0 0 0 0 0 0 0 0 0 0 0 0 0 0 127 0" result="hardAlpha"/>
<feOffset dy="4"/>
<feGaussianBlur stdDeviation="2"/>
<feComposite in2="hardAlpha" operator="out"/>
<feColorMatrix type="matrix" values="0 0 0 0 0 0 0 0 0 0 0 0 0 0 0 0 0 0 0.25 0"/>
<feBlend mode="normal" in2="BackgroundImageFix" result="effect1_dropShadow_414_505"/>
<feBlend mode="normal" in="SourceGraphic" in2="effect1_dropShadow_414_505" result="shape"/>
</filter>
</defs>
</svg>
