<svg width="13" height="13" viewBox="0 0 13 13" fill="none" xmlns="http://www.w3.org/2000/svg">
<path d="M4.31184 1.901H4.80194C4.93192 1.901 5.05658 1.95264 5.14849 2.04455C5.2404 2.13646 5.29203 2.26112 5.29203 2.3911V2.8812H7.74253V2.3911C7.74253 2.26112 7.79416 2.13646 7.88608 2.04455C7.97799 1.95264 8.10265 1.901 8.23263 1.901H8.72273C8.85271 1.901 8.97737 1.95264 9.06928 2.04455C9.16119 2.13646 9.21283 2.26112 9.21283 2.3911V2.8812C9.60277 2.8812 9.97675 3.0361 10.2525 3.31184C10.5282 3.58757 10.6831 3.96155 10.6831 4.3515V9.74259C10.6831 10.1325 10.5282 10.5065 10.2525 10.7822C9.97675 11.058 9.60277 11.2129 9.21283 11.2129H3.82174C3.43179 11.2129 3.05781 11.058 2.78208 10.7822C2.50635 10.5065 2.35144 10.1325 2.35144 9.74259V4.3515C2.35144 3.96155 2.50635 3.58757 2.78208 3.31184C3.05781 3.0361 3.43179 2.8812 3.82174 2.8812V2.3911C3.82174 2.26112 3.87337 2.13646 3.96528 2.04455C4.0572 1.95264 4.18185 1.901 4.31184 1.901ZM8.23263 2.8812H8.72273V2.3911H8.23263V2.8812ZM4.80194 2.8812V2.3911H4.31184V2.8812H4.80194ZM3.82174 3.3713C3.56177 3.3713 3.31246 3.47457 3.12863 3.65839C2.94481 3.84221 2.84154 4.09153 2.84154 4.3515V4.8416H10.193V4.3515C10.193 4.09153 10.0898 3.84221 9.90593 3.65839C9.72211 3.47457 9.47279 3.3713 9.21283 3.3713H3.82174ZM2.84154 9.74259C2.84154 10.0025 2.94481 10.2519 3.12863 10.4357C3.31246 10.6195 3.56177 10.7228 3.82174 10.7228H9.21283C9.47279 10.7228 9.72211 10.6195 9.90593 10.4357C10.0898 10.2519 10.193 10.0025 10.193 9.74259V5.33169H2.84154V9.74259ZM6.76233 7.29209H9.21283V9.74259H6.76233V7.29209ZM7.25243 7.78219V9.25249H8.72273V7.78219H7.25243Z" fill="white"/>
</svg>
