<svg width="37" height="37" viewBox="0 0 37 37" fill="none" xmlns="http://www.w3.org/2000/svg">
<path d="M34.6258 9.25008C33.4387 9.78966 32.1591 10.1442 30.8333 10.3138C32.19 9.49675 33.2383 8.20175 33.7316 6.64466C32.4521 7.4155 31.0337 7.95508 29.5383 8.26342C28.3204 6.93758 26.6091 6.16675 24.6666 6.16675C21.0437 6.16675 18.0837 9.12675 18.0837 12.7805C18.0837 13.3047 18.1454 13.8134 18.2533 14.2913C12.765 14.0138 7.8779 11.3776 4.62498 7.38466C4.05456 8.35591 3.73081 9.49675 3.73081 10.6992C3.73081 12.9963 4.88706 15.0313 6.6754 16.1876C5.58081 16.1876 4.56331 15.8792 3.66915 15.4167V15.463C3.66915 18.6697 5.95081 21.3522 8.97248 21.9534C8.00252 22.22 6.98379 22.257 5.99706 22.0613C6.41579 23.3756 7.23585 24.5255 8.34196 25.3496C9.44808 26.1737 10.7846 26.6304 12.1637 26.6555C9.82605 28.5063 6.92824 29.5067 3.94665 29.4922C3.42248 29.4922 2.89831 29.4613 2.37415 29.3997C5.30331 31.2805 8.78748 32.3751 12.5183 32.3751C24.6666 32.3751 31.3421 22.2926 31.3421 13.5513C31.3421 13.2584 31.3421 12.9809 31.3266 12.688C32.6216 11.763 33.7316 10.5913 34.6258 9.25008Z" fill="#737373"/>
</svg>
