<svg width="41" height="41" viewBox="0 0 41 41" fill="none" xmlns="http://www.w3.org/2000/svg">
<path d="M25.0636 13.9084L26.9562 15.7438L26.0385 16.69L26.9848 17.6077L26.0671 18.554L27.0133 19.4717L26.0956 20.418L27.0419 21.3357L26.1242 22.2819L27.0705 23.1996L25.2351 25.0922L23.3425 23.2568L24.2602 22.3105L23.314 21.3928L24.2317 20.4465L23.2854 19.5288L15.0261 28.0453L13.1335 26.2099L21.3928 17.6934L20.4466 16.7757L19.5289 17.722L18.5826 16.8043L17.6649 17.7506L15.7724 15.9152L17.6078 14.0226L18.554 14.9403L19.4717 13.9941L20.418 14.9118L21.3357 13.9655L22.282 14.8832L23.1997 13.9369L24.1459 14.8546" fill="black"/>
</svg>
