<svg width="56" height="56" viewBox="0 0 56 56" fill="none" xmlns="http://www.w3.org/2000/svg">
<path d="M3.25937 53.9306C4.25249 55.0069 8.34312 53.13 11.5719 51.625C13.9912 50.5006 23.6731 46.5281 28.4856 44.4675C29.785 43.9119 31.675 43.1856 33.0356 41.3963C34.2431 39.8038 37.4456 33.04 30.9969 26.1888C24.4519 19.2325 17.71 21.1531 15.19 22.9381C13.7069 23.9881 12.4994 26.355 11.9569 27.5581C9.66437 32.6419 6.39624 41.9563 5.06624 45.6181C4.09062 48.3175 2.27499 52.8631 3.25937 53.9306Z" fill="#FFC107"/>
<path d="M11.3094 29.0894C11.3706 29.8506 11.5237 31.0887 12.0487 33.4731C12.4075 35.1094 12.9937 36.8244 13.4706 37.9575C14.9012 41.3656 16.9094 42.7394 18.9437 43.8419C22.4 45.7144 24.7494 46.0644 24.7494 46.0644L21.9319 47.215C21.9319 47.215 20.2256 46.8606 17.8981 45.7144C15.68 44.6206 13.37 42.77 11.6812 39.1475C10.9506 37.5769 10.5262 36.0544 10.2812 34.8469C9.97935 33.3506 9.93123 32.5019 9.93123 32.5019L11.3094 29.0894ZM7.84873 37.9619C7.84873 37.9619 8.19873 40.8012 10.5437 44.3844C13.2912 48.5756 17.1281 49.2625 17.1281 49.2625L14.5775 50.3125C14.5775 50.3125 11.7294 49.4419 9.02123 45.745C7.33248 43.4394 6.85998 40.6831 6.85998 40.6831L7.84873 37.9619ZM5.4206 44.6906C5.4206 44.6906 6.05935 47.1406 7.45935 48.9694C9.12623 51.1525 11.2481 51.7869 11.2481 51.7869L9.29248 52.6531C9.29248 52.6531 7.80935 52.3425 6.18623 50.2862C4.95248 48.7244 4.60248 46.9306 4.60248 46.9306L5.4206 44.6906Z" fill="#FF8F00"/>
<path opacity="0.44" d="M4.35751 50.9119C4.27001 50.715 4.27001 50.4919 4.36188 50.2994L15.505 27.1907L17.3381 34.0813L5.61313 51.0169C5.29813 51.4894 4.58938 51.4282 4.35751 50.9119Z" fill="#FFFDE7"/>
<path d="M18.2219 36.3956C23.4281 42.4856 29.3562 41.7244 31.3294 40.1844C33.3069 38.64 34.8687 33.3331 29.6844 27.3437C24.2506 21.07 18.0994 22.8594 16.6775 24.2156C15.2556 25.5719 13.4444 30.8087 18.2219 36.3956Z" fill="url(#paint0_linear_411_425)"/>
<path d="M36.1025 38.9025C34.2038 37.31 33.1931 37.5944 31.8369 38.1588C30.0869 38.885 27.335 39.4231 23.5988 38.1588L24.7231 35.4506C26.9413 36.1988 28.5469 35.8356 29.9338 35.0175C31.7188 33.9675 34.16 32.5281 37.9575 35.7175C39.5413 37.0475 41.1644 37.9313 42.3544 37.5288C43.2206 37.24 43.68 35.9494 43.9119 34.9213C43.9338 34.8294 43.9688 34.5669 43.995 34.335C44.205 32.7294 44.555 29.2644 47.1363 27.4925C49.8969 25.5981 52.7975 25.5981 52.7975 25.5981L53.3225 30.8131C51.9881 30.6163 51.0606 30.8875 50.2775 31.3206C47.3288 32.9613 49.8969 39.2613 45.3075 41.3788C40.8931 43.4306 37.2838 39.8913 36.1025 38.9025Z" fill="#03A9F4"/>
<path d="M19.8625 32.2525L17.9637 30.5506C21.4506 26.6569 20.5319 23.7956 19.8625 21.7131C19.7269 21.2931 19.6 20.895 19.5169 20.5144C19.2194 19.1669 19.1581 17.9944 19.25 16.9706C17.9112 15.3038 17.3206 13.5581 17.2812 13.44C16.4675 10.9769 17.08 8.575 18.4844 6.32188C21.3237 1.75 26.4644 1.75 26.4644 1.75L28.1794 6.33938C26.8756 6.28687 22.6012 6.3525 21.2887 8.42188C19.6306 11.0294 20.72 12.6394 20.7987 12.8231C21.1181 12.4075 21.4419 12.075 21.7306 11.8169C23.8262 9.9575 25.6462 9.69062 26.8056 9.79562C28.1094 9.91375 29.2906 10.57 30.135 11.6463C31.0581 12.8275 31.4387 14.3631 31.1456 15.7587C30.8612 17.1194 29.9556 18.27 28.595 19.0006C26.2194 20.2781 24.2419 20.1031 22.9162 19.6612C22.925 19.6919 22.9294 19.7269 22.9381 19.7575C22.9862 19.9762 23.0825 20.2825 23.1962 20.6369C23.9706 23.0344 25.41 26.8406 19.8625 32.2525ZM23.0781 15.8331C23.3319 16.0169 23.5987 16.17 23.8744 16.2794C24.7931 16.6469 25.795 16.5244 26.9325 15.9119C27.6019 15.5531 27.6806 15.1681 27.7069 15.0413C27.7856 14.6606 27.6544 14.175 27.37 13.8119C27.1206 13.4925 26.8319 13.3263 26.4862 13.2912C25.83 13.2344 24.9419 13.65 24.0537 14.4419C23.6294 14.8225 23.3056 15.2906 23.0781 15.8331Z" fill="#F44336"/>
<path d="M27.4619 32.9656L24.745 32.8912C24.745 32.8912 26.0356 25.6025 30.2137 24.3775C30.9969 24.15 31.8544 23.9181 32.7162 23.7912C33.2281 23.7125 34.0375 23.5943 34.4356 23.4456C34.5275 22.7587 34.2387 21.8837 33.915 20.8906C33.6612 20.1206 33.3987 19.3287 33.2587 18.4625C32.9875 16.7737 33.4381 15.2818 34.5275 14.2537C35.8575 13.0068 38.0056 12.6087 40.4294 13.16C41.8119 13.475 42.8312 14.1531 43.7281 14.7481C45.01 15.6012 45.7581 16.0343 47.3244 14.98C49.2187 13.7025 46.7425 8.70185 45.4256 5.81435L50.3387 3.76685C50.9994 5.2106 54.1887 12.6393 52.0844 16.8787C51.3756 18.305 50.155 19.25 48.5537 19.6043C45.0712 20.3831 43.0325 19.0268 41.545 18.0381C40.8406 17.57 40.2237 17.2025 39.5544 17.01C34.9037 15.6843 41.3962 22.5268 38.3556 25.6025C36.5312 27.4443 32.0731 27.93 31.7844 28C28.9144 28.6912 27.4619 32.9656 27.4619 32.9656Z" fill="#F48FB1"/>
<path d="M19.2456 16.9706C19.1625 17.9331 19.1231 18.5062 19.3725 19.7575C20.5756 20.6412 23.1962 20.6412 23.1962 20.6412C23.0825 20.2868 22.9819 19.9806 22.9381 19.7618C22.9294 19.7312 22.925 19.6962 22.9162 19.6656C20.2519 18.3356 19.2456 16.9706 19.2456 16.9706Z" fill="#C92B27"/>
<path d="M13.7944 21.28L9.27063 19.0619L11.5238 15.8069L15.0719 18.1563L13.7944 21.28Z" fill="#FFC107"/>
<path d="M7.12689 15.1375C4.81689 14.8269 2.46314 12.8669 2.20502 12.6437L4.47564 9.97937C5.16252 10.5612 6.61939 11.5369 7.59502 11.6681L7.12689 15.1375Z" fill="#FB8C00"/>
<path d="M11.2044 9.30567L7.87939 8.21629C8.26002 7.05254 8.36064 5.79692 8.16377 4.58504L11.62 4.02942C11.9044 5.78817 11.76 7.61254 11.2044 9.30567Z" fill="#03A9F4"/>
<path d="M31.9694 6.70467L35.3885 5.95654L36.3759 10.4698L32.9569 11.2179L31.9694 6.70467Z" fill="#FB8C00"/>
<path d="M40.4512 7.77437L38.045 5.23249C39.305 4.03812 39.5937 2.47624 39.5937 2.45874L43.05 3.02312C43.0062 3.29874 42.5644 5.77499 40.4512 7.77437Z" fill="#FFC107"/>
<path d="M41.7874 21.2537L44.8442 20.2982L45.888 23.639L42.8312 24.5945L41.7874 21.2537Z" fill="#FB8C00"/>
<path d="M42.6781 49.4506L39.2 49.0393C39.3487 47.8012 38.4256 46.2831 38.1719 45.9462L40.9719 43.8462C41.1819 44.1218 43.0063 46.6462 42.6781 49.4506Z" fill="#F44336"/>
<path d="M52.6619 45.0143C51.3537 44.8175 50.015 44.7387 48.6937 44.7868L48.5756 41.2868C50.1112 41.2343 51.6644 41.3218 53.1825 41.5537L52.6619 45.0143Z" fill="#FB8C00"/>
<path d="M47.9561 49.8321L50.4149 47.3414L53.7989 50.6831L51.3402 53.1733L47.9561 49.8321Z" fill="#F48FB1"/>
<path d="M40.7326 27.7086L43.2613 30.6001L40.3699 33.1288L37.8411 30.2374L40.7326 27.7086Z" fill="#F44336"/>
<defs>
<linearGradient id="paint0_linear_411_425" x1="32.543" y1="27.0546" x2="19.5199" y2="34.8683" gradientUnits="userSpaceOnUse">
<stop offset="0.024" stop-color="#8F4700"/>
<stop offset="1" stop-color="#703E2D"/>
</linearGradient>
</defs>
</svg>
