<svg width="56" height="56" viewBox="0 0 56 56" fill="none" xmlns="http://www.w3.org/2000/svg">
<path d="M40.6886 54.8489C40.6632 54.7372 40.6347 54.6262 40.6031 54.516L40.5144 54.558L40.5206 54.3496C40.488 53.4474 39.5749 53.5563 39.466 53.5469C39.3571 53.5376 38.9915 53.5563 38.5389 53.4987C38.0877 53.4411 37.6522 53.3307 37.2695 53.0989C36.8231 52.8283 36.2149 52.3725 35.6922 52.0676C35.1695 51.7627 34.5131 51.3878 34.5131 51.3878C34.5131 51.3878 33.9422 52.4487 32.76 52.4051C32.1237 52.3818 31.1266 51.8809 30.9975 51.8451C30.8264 51.7969 30.7502 51.8934 30.6786 52.0256C30.6071 52.1578 30.3504 53.0896 30.3504 53.5889C30.3504 53.9063 30.3893 54.1069 30.4189 54.2189L30.3333 54.1925C30.2944 54.1816 30.2571 54.2111 30.2571 54.2531V55.3218C30.2571 55.3918 30.3146 55.5505 30.4982 55.5878C30.6817 55.6252 33.2344 55.8445 33.3309 55.7589C33.4273 55.6734 33.5331 55.398 33.6155 55.3592C33.698 55.3203 34.5535 55.5054 34.9517 55.6003C35.35 55.6952 36.0375 55.8569 36.8464 55.8569C37.6553 55.8569 38.6991 55.6189 39.3462 55.4572C39.9933 55.2954 40.4989 55.0792 40.614 55.0076C40.7291 54.936 40.6964 54.9034 40.6886 54.8489Z" fill="#292F33"/>
<path d="M32.9622 55.0744L32.3245 54.6279C32.3369 54.6077 33.614 52.8437 36.1185 53.5919C36.2616 53.3959 36.4762 53.0879 36.6831 52.7457L37.3489 53.1502C36.9756 53.7662 36.5851 54.2671 36.5696 54.2873L36.3969 54.5082L36.1325 54.4133C33.9874 53.6495 32.9731 55.0588 32.9622 55.0744Z" fill="#4B545D"/>
<path d="M22.1946 54.8489C22.1692 54.7372 22.1406 54.6262 22.1091 54.516L22.0204 54.558L22.0266 54.3496C21.994 53.4474 21.0808 53.5563 20.972 53.5469C20.8631 53.5376 20.4975 53.5563 20.0448 53.4987C19.5922 53.4411 19.1582 53.3307 18.7755 53.0989C18.3291 52.8283 17.7208 52.3725 17.1982 52.0676C16.6755 51.7627 16.0191 51.3878 16.0191 51.3878C16.0191 51.3878 15.4482 52.4487 14.2659 52.4051C13.6297 52.3818 12.6326 51.8809 12.5035 51.8451C12.3324 51.7969 12.2562 51.8934 12.1846 52.0256C12.1131 52.1578 11.8564 53.0896 11.8564 53.5889C11.8564 53.9063 11.8953 54.1069 11.9248 54.2189L11.8393 54.1925C11.8004 54.1816 11.7631 54.2111 11.7631 54.2531V55.3218C11.7631 55.3918 11.8206 55.5505 12.0042 55.5878C12.1877 55.6252 14.7404 55.8445 14.8368 55.7589C14.9333 55.6734 15.0391 55.398 15.1215 55.3592C15.204 55.3203 16.0595 55.5054 16.4577 55.6003C16.856 55.6952 17.5435 55.8569 18.3524 55.8569C19.1613 55.8569 20.2051 55.6189 20.8522 55.4572C21.4993 55.2954 22.0048 55.0792 22.12 55.0076C22.2351 54.936 22.2024 54.9034 22.1946 54.8489Z" fill="#292F33"/>
<path d="M14.4667 55.0759L13.8304 54.6279C13.8429 54.6093 15.1107 52.8406 17.6244 53.5919C17.766 53.3959 17.9822 53.0879 18.1891 52.7457L18.8549 53.1502C18.4816 53.7662 18.0911 54.2671 18.0756 54.2873L17.9029 54.5082L17.6384 54.4133C15.5136 53.6542 14.5087 55.0168 14.4667 55.0759Z" fill="#4B545D"/>
<path d="M44.5791 2.82492C44.2836 2.68648 44.1451 2.98359 44.1451 2.98359L43.5571 4.2467C43.568 4.22492 43.428 4.13625 43.4374 4.11914L44.3085 2.25092C44.3085 2.25092 44.4469 1.95536 44.1498 1.81692C43.8527 1.67848 43.7158 1.97559 43.7158 1.97559L43.6318 2.15448L42.8976 3.73025C42.8991 3.72559 42.7529 3.65403 42.7545 3.65092L43.722 1.5727C43.722 1.5727 43.8605 1.27714 43.5634 1.1387C43.2678 1.00025 43.1294 1.29736 43.1294 1.29736L42.1618 3.37559C42.1602 3.3787 42.0109 3.31492 42.0078 3.31959L42.8089 1.59914C42.8089 1.59914 42.9474 1.30359 42.6502 1.16514C42.3547 1.0267 42.2162 1.32381 42.2162 1.32381L41.1242 3.66803C41.0496 3.82825 40.908 3.83136 40.8458 3.78936C40.6809 3.67736 40.768 3.38492 40.7229 3.12981C40.6529 2.74092 40.418 2.48425 40.1707 2.47959C39.8969 2.47492 39.8502 2.69425 39.872 2.77048C39.9156 2.91825 39.9856 3.16559 40.068 3.55759C40.1256 3.83292 40.0416 4.06159 40.0416 4.06159C39.9536 4.36672 39.9334 4.68739 39.9825 5.00114C40.026 5.26403 40.1256 5.5487 40.3014 5.81003L39.7849 6.9207L42.1291 7.94581L42.6985 6.4587C43.1138 6.27359 43.4762 5.96248 43.6831 5.51914L43.7516 5.37136L44.7331 3.26359C44.7378 3.25736 44.8747 2.96181 44.5791 2.82492Z" fill="#FFDC5D"/>
<path d="M40.9858 3.80018C41.0347 3.78587 41.0763 3.75365 41.1025 3.70996C41.3638 3.87796 41.7076 4.13307 41.8663 4.55463C41.9465 4.753 41.9841 4.96606 41.9766 5.17993C41.9691 5.3938 41.9167 5.6037 41.8227 5.79596C41.72 6.01063 41.5551 6.05729 41.6687 5.72285C41.8118 5.30285 41.8911 4.37574 40.9609 3.84841L40.8754 3.80174C40.8769 3.80174 40.9329 3.81574 40.9858 3.80018Z" fill="#EF9645"/>
<path d="M17.7286 31.6913C17.5212 31.5176 17.3213 31.3349 17.1297 31.1438C16.9291 30.9446 16.8731 30.7098 16.8731 30.7098C16.7773 30.4069 16.6164 30.1287 16.4017 29.8946C16.2025 29.6794 15.9589 29.5101 15.6877 29.3984L15.5073 28.1866L12.9873 28.6284L13.3357 30.1824C13.0931 30.5666 12.9624 31.0255 13.0355 31.5109L13.0604 31.6726L13.4089 33.9718C13.4089 33.9718 13.4571 34.2938 13.7806 34.2455C14.1042 34.1973 14.0544 33.8738 14.0544 33.8738L13.8444 32.4955C13.8475 32.5189 14.0124 32.5158 14.0155 32.536L14.3235 34.5738C14.3235 34.5738 14.3717 34.8958 14.6953 34.8475C15.0173 34.7993 14.9691 34.4758 14.9691 34.4758L14.9395 34.2798L14.6797 32.5609C14.6797 32.5655 14.8415 32.5453 14.8431 32.5469L15.1869 34.8133C15.1869 34.8133 15.2351 35.1353 15.5586 35.0871C15.8806 35.0389 15.8324 34.7153 15.8324 34.7153L15.4902 32.4489C15.4902 32.4458 15.6504 32.4162 15.6489 32.4115L15.932 34.2875C15.932 34.2875 15.9802 34.6095 16.3037 34.5613C16.6257 34.5131 16.5775 34.1895 16.5775 34.1895L16.1902 31.6322C16.1637 31.458 16.2789 31.3755 16.3551 31.3771C16.5542 31.3786 16.6429 31.6711 16.8217 31.8578C17.0955 32.1424 17.4331 32.2264 17.6415 32.0942C17.8717 31.9511 17.7893 31.7411 17.7286 31.6913Z" fill="#FFDC5D"/>
<path d="M40.1551 5.80066C40.1551 5.80066 36.9522 12.5222 36.5742 12.74C36.2335 12.936 33.9002 12.6747 30.8202 13.2907C27.7402 13.9067 26.5518 13.0495 23.4018 13.174C21.5724 13.2455 19.6482 13.8771 18.382 14.182C16.4578 14.6471 13.286 19.2173 12.3962 20.8087C11.7071 22.0391 11.7413 23.422 11.8875 24.4984C12.0089 25.3975 11.9778 26.81 13.1631 29.8029L15.8371 29.3658C15.8371 29.3658 15.3875 23.4811 15.7702 22.8449C15.9289 22.582 17.8282 19.5487 19.3527 18.998L32.0895 18.3991C32.0895 18.3991 37.3395 17.6447 38.7815 16.5838C39.8829 15.7733 42.6658 6.85999 42.6658 6.85999L40.1551 5.80066Z" fill="#292F33"/>
<path d="M24.1826 9.1109C24.4548 8.84335 24.8157 8.66135 25.2264 8.62246C25.4531 8.59902 25.6822 8.62058 25.9006 8.6859C26.119 8.75123 26.3223 8.85903 26.4989 9.00312C26.6755 9.14721 26.822 9.32476 26.9298 9.52558C27.0376 9.7264 27.1047 9.94653 27.1273 10.1733L27.6235 15.078C27.6697 15.5358 27.5322 15.9931 27.2412 16.3494C26.9502 16.7058 26.5296 16.9319 26.0718 16.9781C25.6141 17.0243 25.1568 16.8868 24.8004 16.5958C24.4441 16.3048 24.2179 15.8842 24.1717 15.4265L23.6739 10.5218C23.6195 9.97735 23.8217 9.47024 24.1826 9.1109Z" fill="#FFDC5D"/>
<path d="M29.9336 6.68264C29.9336 9.55886 27.8973 11.8906 25.3804 11.8906C22.8636 11.8906 20.8242 9.55886 20.8242 6.68264C20.8242 3.80642 22.8636 1.4762 25.3804 1.4762C27.8973 1.4762 29.9336 3.80797 29.9336 6.68264Z" fill="#FFDC5D"/>
<path d="M27.8288 3.13916C27.8288 3.13916 26.0555 4.80361 24.1748 5.09138C24.1748 5.09138 23.0502 6.91294 22.9802 7.96449C22.9802 7.96449 22.2802 6.28294 21.7202 6.56449C21.1602 6.84605 20.9486 7.89449 21.4402 8.59449C21.9302 9.29605 22.5368 10.5016 22.0048 10.1547C20.9331 9.45472 20.7759 8.96005 20.4866 8.49027C20.2891 8.16983 19.8255 7.02338 19.7633 5.12716C19.7259 4.00561 20.1242 1.83561 22.4186 0.682939C24.4066 -0.318839 27.5317 0.192939 29.0002 1.24138C30.4702 2.29294 30.8357 4.94361 29.9242 5.99516C29.9242 5.99516 29.792 5.01516 29.1651 4.22183C28.8135 3.78161 27.8288 3.13916 27.8288 3.13916Z" fill="#FFAC33"/>
<path d="M19.2998 14.7374V29.1309L30.3178 29.0936C30.3178 29.0936 31.29 24.8889 31.9262 22.0174C32.6636 18.6963 30.2478 13.6298 30.2478 13.6298L28.5647 13.4618L28.2349 11.8892L26.5922 12.5114L26.3574 15.2352L25.648 12.6436L23.24 12.4336L22.9538 14.0934L19.2998 14.7374Z" fill="#DD2E44"/>
<path d="M18.326 14.9225C18.326 14.9225 19.3962 18.7227 18.9249 26.5891C22.3907 26.53 25.0896 25.4505 25.0896 25.4505C25.0896 25.4505 25.3167 22.4654 24.7349 19.8271C23.8856 15.9865 23.016 13.7278 23.016 13.7278L18.326 14.9225ZM28.462 12.9843C28.462 12.9843 29.4311 18.0725 29.2149 21.1105C28.9971 24.1485 28.8493 25.3011 28.8493 25.3011C28.8493 25.3011 29.5353 26.0571 31.2916 26.026C32.018 24.1251 32.4613 20.3031 32.3727 17.9636C32.2809 15.498 30.814 13.0994 30.814 13.0994L28.462 12.9843ZM19.2998 29.1309C19.2998 29.1309 18.3556 40.012 17.7722 42.0529C17.2527 43.8698 11.8627 52.5405 11.8627 52.5405C11.8627 52.5405 14.4231 53.172 16.8856 52.6867C16.8856 52.6867 21.8058 46.7196 23.0922 43.8387C23.4656 43.0003 25.9467 35.2505 25.9467 35.2505C25.9467 35.2505 28.6098 38.2185 30.4002 40.8489C31.5327 43.9647 30.5402 52.4254 30.5402 52.4254C30.5402 52.4254 32.8471 52.9107 35.0498 52.4907C35.0498 52.4907 36.386 44.0954 36.0624 40.5316C36.0111 39.9607 35.9022 38.8983 35.6813 38.4954C34.7184 36.7485 32.6278 33.4694 31.2916 32.0056C30.0876 30.688 30.3193 29.092 30.3193 29.092L19.2998 29.1309Z" fill="#292F33"/>
</svg>
