<svg width="20" height="21" viewBox="0 0 20 21" fill="none" xmlns="http://www.w3.org/2000/svg">
<path d="M16 6.69131C17.6569 6.69131 19 5.45946 19 3.9399C19 2.42033 17.6569 1.18848 16 1.18848C14.3431 1.18848 13 2.42033 13 3.9399C13 5.45946 14.3431 6.69131 16 6.69131Z" stroke="white" stroke-width="2" stroke-linecap="round" stroke-linejoin="round"/>
<path d="M4 13.1112C5.65685 13.1112 7 11.8794 7 10.3598C7 8.84025 5.65685 7.6084 4 7.6084C2.34315 7.6084 1 8.84025 1 10.3598C1 11.8794 2.34315 13.1112 4 13.1112Z" stroke="white" stroke-width="2" stroke-linecap="round" stroke-linejoin="round"/>
<path d="M16 19.5312C17.6569 19.5312 19 18.2993 19 16.7797C19 15.2602 17.6569 14.0283 16 14.0283C14.3431 14.0283 13 15.2602 13 16.7797C13 18.2993 14.3431 19.5312 16 19.5312Z" stroke="white" stroke-width="2" stroke-linecap="round" stroke-linejoin="round"/>
<path d="M6.58984 11.7446L13.4198 15.3948" stroke="white" stroke-width="2" stroke-linecap="round" stroke-linejoin="round"/>
<path d="M13.4098 5.32471L6.58984 8.97492" stroke="white" stroke-width="2" stroke-linecap="round" stroke-linejoin="round"/>
</svg>
